<mxfile host="app.diagrams.net" modified="2023-12-22T08:54:35.789Z" agent="Mozilla/5.0 (Macintosh; Intel Mac OS X 10_15_7) AppleWebKit/537.36 (KHTML, like Gecko) Chrome/120.0.0.0 Safari/537.36" etag="WsfVe6HwJ94mLkikB5SW" version="22.1.11" type="github">
  <diagram name="페이지-1" id="FTu0Ke8YIVoSJ-hZevIX">
    <mxGraphModel dx="2261" dy="786" grid="1" gridSize="10" guides="1" tooltips="1" connect="1" arrows="1" fold="1" page="1" pageScale="1" pageWidth="827" pageHeight="1169" math="0" shadow="0">
      <root>
        <mxCell id="0" />
        <mxCell id="1" parent="0" />
        <mxCell id="Exe1lYxw26IQHnq39bxL-3" style="edgeStyle=orthogonalEdgeStyle;rounded=0;orthogonalLoop=1;jettySize=auto;html=1;" parent="1" source="X9U1fQeeY0qdGe6NrVDz-1" target="X9U1fQeeY0qdGe6NrVDz-12" edge="1">
          <mxGeometry relative="1" as="geometry" />
        </mxCell>
        <mxCell id="X9U1fQeeY0qdGe6NrVDz-1" value="UDP&lt;br&gt;Echo Server" style="outlineConnect=0;dashed=0;verticalLabelPosition=bottom;verticalAlign=top;align=center;html=1;shape=mxgraph.aws3.android;fillColor=#8CC64F;gradientColor=none;" parent="1" vertex="1">
          <mxGeometry x="-528" y="630" width="80" height="90" as="geometry" />
        </mxCell>
        <mxCell id="Exe1lYxw26IQHnq39bxL-2" style="edgeStyle=orthogonalEdgeStyle;rounded=0;orthogonalLoop=1;jettySize=auto;html=1;" parent="1" source="X9U1fQeeY0qdGe6NrVDz-2" target="X9U1fQeeY0qdGe6NrVDz-1" edge="1">
          <mxGeometry relative="1" as="geometry" />
        </mxCell>
        <mxCell id="X9U1fQeeY0qdGe6NrVDz-2" value="AIS HUB&lt;br&gt;Example Raw Data" style="image;aspect=fixed;html=1;points=[];align=center;fontSize=12;image=img/lib/azure2/general/File.svg;" parent="1" vertex="1">
          <mxGeometry x="-760" y="640.5" width="56.00000000000001" height="69" as="geometry" />
        </mxCell>
        <mxCell id="Exe1lYxw26IQHnq39bxL-4" style="edgeStyle=orthogonalEdgeStyle;rounded=0;orthogonalLoop=1;jettySize=auto;html=1;" parent="1" source="X9U1fQeeY0qdGe6NrVDz-12" target="X9U1fQeeY0qdGe6NrVDz-15" edge="1">
          <mxGeometry relative="1" as="geometry" />
        </mxCell>
        <mxCell id="X9U1fQeeY0qdGe6NrVDz-12" value="UDP&#xa;Echo Client" style="shape=image;verticalLabelPosition=bottom;verticalAlign=top;imageAspect=0;aspect=fixed;image=data:image/svg+xml,PHN2ZyB4bWxucz0iaHR0cDovL3d3dy53My5vcmcvMjAwMC9zdmciIGhlaWdodD0iOTZweCIgd2lkdGg9Ijk2cHgiIHZpZXdCb3g9IjAgMCA0OCA0OCI+PHBhdGggZD0iTTQzLjk4MiwyMy42MzVjMC4wNjktNC4yNjEtMC44OTEtOS4zMjgtMi44OTEtMTUuMjczbC0xLjU2OC00LjY2MmwtMi4xMyw0LjQzMyBjLTAuMTE0LDAuMjM3LTAuMjQ0LDAuNDY5LTAuMzgsMC42OThDMzMuNTE0LDUuODI3LDI4Ljk3NCw0LDI0LDRDMTIuOTU0LDQsNCwxMi45NTQsNCwyNGMwLDExLjA0Niw4Ljk1NCwyMCwyMCwyMHMyMC04Ljk1NCwyMC0yMCBDNDQsMjMuODc3LDQzLjk4NCwyMy43NTgsNDMuOTgyLDIzLjYzNXoiIGZpbGw9IiM4YmMzNGEiLz48cGF0aCBkPSJNMzkuMzg1IDMyLjU1OGMtMy4xMjMgNC4zMDItOC42NTEgNC41MzMtMTMuODU0IDQuNDQySDE4Ljc1aC0xLjkzOGM0LjQyOC0xLjU5MyA3LjA2My0xLjk3MiA5Ljc1NC0zLjQgNS4wNjgtMi42NjUgMTAuMDc4LTguNDk2IDExLjEyMS0xNC41NjItMS45MyA1LjgzNi03Ljc3OSAxMC44NS0xMy4xMDkgMTIuODg5LTMuNjUyIDEuMzkzLTEwLjI0OCAyLjc0NS0xMC4yNDggMi43NDVsLS4yNjctLjE0NUM5LjU3MyAzMi4yNjggOS40MzcgMjIuMjE0IDE3LjYgMTguOTY4YzMuNTc0LTEuNDIzIDYuOTkzLS42NDEgMTAuODU0LTEuNTkzIDQuMTIyLTEuMDEyIDguODktNC4yMDggMTAuODMtOC4zNzVDNDEuNDU2IDE1LjY2NyA0NC4wNyAyNi4xMDYgMzkuMzg1IDMyLjU1OEwzOS4zODUgMzIuNTU4ek0xNS42NjggMzguNDQ1QzE1LjM4NiAzOC43OTUgMTQuOTU1IDM5IDE0LjUwNSAzOWMtLjgyMyAwLTEuNDk1LS42NzctMS40OTUtMS41cy42NzctMS41IDEuNDk1LTEuNWMuMzQxIDAgLjY3Ny4xMTguOTQxLjMzNkMxNi4wODYgMzYuODU1IDE2LjE4NiAzNy44MDUgMTUuNjY4IDM4LjQ0NUwxNS42NjggMzguNDQ1eiIgZmlsbD0iI2ZmZiIvPjwvc3ZnPg==" parent="1" vertex="1">
          <mxGeometry x="-292" y="627" width="96" height="96" as="geometry" />
        </mxCell>
        <mxCell id="Exe1lYxw26IQHnq39bxL-5" style="edgeStyle=orthogonalEdgeStyle;rounded=0;orthogonalLoop=1;jettySize=auto;html=1;entryX=0;entryY=0.5;entryDx=0;entryDy=0;" parent="1" source="X9U1fQeeY0qdGe6NrVDz-15" target="X9U1fQeeY0qdGe6NrVDz-19" edge="1">
          <mxGeometry relative="1" as="geometry" />
        </mxCell>
        <mxCell id="Exe1lYxw26IQHnq39bxL-6" style="edgeStyle=orthogonalEdgeStyle;rounded=0;orthogonalLoop=1;jettySize=auto;html=1;entryX=0;entryY=0.5;entryDx=0;entryDy=0;" parent="1" source="X9U1fQeeY0qdGe6NrVDz-15" target="X9U1fQeeY0qdGe6NrVDz-20" edge="1">
          <mxGeometry relative="1" as="geometry" />
        </mxCell>
        <mxCell id="X9U1fQeeY0qdGe6NrVDz-15" value="[Kafka]&#xa;Upstash Kafka" style="shape=image;verticalLabelPosition=bottom;verticalAlign=top;imageAspect=0;aspect=fixed;image=data:image/svg+xml,PHN2ZyB4bWxucz0iaHR0cDovL3d3dy53My5vcmcvMjAwMC9zdmciIGZpbGw9Im5vbmUiIHZpZXdCb3g9IjAgMCA0OCA0OCIgaGVpZ2h0PSI0OCIgd2lkdGg9IjQ4Ij4mI3hhOzxwYXRoIGZpbGw9IiMwNDA1MzEiIGQ9Ik0yNyA4QzI3IDkuMTA0NTcgMjYuMTA0NiAxMCAyNSAxMEMyMy44OTU0IDEwIDIzIDkuMTA0NTcgMjMgOEMyMyA2Ljg5NTQzIDIzLjg5NTQgNiAyNSA2QzI2LjEwNDYgNiAyNyA2Ljg5NTQzIDI3IDhaTTI2LjQ4MzQgMTIuNzc2M0MyOC41MjA1IDEyLjE0NDMgMzAgMTAuMjQ0OSAzMCA4QzMwIDUuMjM4NTggMjcuNzYxNCAzIDI1IDNDMjIuMjM4NiAzIDIwIDUuMjM4NTggMjAgOEMyMCAxMC4yNDQ5IDIxLjQ3OTUgMTIuMTQ0MyAyMy41MTY2IDEyLjc3NjNDMjMuNTA1NyAxMi44NDkzIDIzLjUgMTIuOTI0IDIzLjUgMTNWMTYuNjVDMjAuMDc2NiAxNy4zNDQ5IDE3LjUgMjAuMzcxNiAxNy41IDI0QzE3LjUgMjcuNjI4NCAyMC4wNzY2IDMwLjY1NTEgMjMuNSAzMS4zNVYzNUMyMy41IDM1LjA3NiAyMy41MDU3IDM1LjE1MDcgMjMuNTE2NiAzNS4yMjM3QzIxLjQ3OTUgMzUuODU1NyAyMCAzNy43NTUxIDIwIDQwQzIwIDQyLjc2MTQgMjIuMjM4NiA0NSAyNSA0NUMyNy43NjE0IDQ1IDMwIDQyLjc2MTQgMzAgNDBDMzAgMzcuNzU1MSAyOC41MjA1IDM1Ljg1NTcgMjYuNDgzNCAzNS4yMjM3QzI2LjQ5NDMgMzUuMTUwNyAyNi41IDM1LjA3NiAyNi41IDM1VjMxLjM1QzI4LjIxOTMgMzEuMDAxIDI5LjcyNSAzMC4wNjM5IDMwLjc5OCAyOC43NTc4TDM1LjE5IDMxLjQ2NjRDMzUuMTAwNiAzMi4xMTY3IDM1LjEzODYgMzIuNzk1NCAzNS4zMjMzIDMzLjQ2ODRDMzYuMDU0MiAzNi4xMzE0IDM4LjgwNTQgMzcuNjk3NyA0MS40NjgzIDM2Ljk2NjhDNDQuMTMxMyAzNi4yMzYgNDUuNjk3NiAzMy40ODQ4IDQ0Ljk2NjcgMzAuODIxOEM0NC4yMzU5IDI4LjE1ODkgNDEuNDg0NyAyNi41OTI2IDM4LjgyMTcgMjcuMzIzNEMzNy44OTEzIDI3LjU3ODggMzcuMDk0OCAyOC4wODA3IDM2LjQ4MzMgMjguNzM5NEwzMi4yMDIzIDI2LjA5OTFDMzIuMzk2MSAyNS40MzMgMzIuNSAyNC43Mjg3IDMyLjUgMjRDMzIuNSAyMy4zMTg2IDMyLjQwOTEgMjIuNjU4NCAzMi4yMzg4IDIyLjAzMDhMMzYuNTc1OCAxOS42NDhDMzcuMTc3NCAyMC4yNTU4IDM3Ljk0MyAyMC43MTczIDM4LjgyODQgMjAuOTU1NUM0MS40OTUgMjEuNjcyOCA0NC4yMzgyIDIwLjA5MjUgNDQuOTU1NSAxNy40MjU5QzQ1LjY3MjggMTQuNzU5MiA0NC4wOTI1IDEyLjAxNiA0MS40MjU5IDExLjI5ODdDMzguNzU5MiAxMC41ODE1IDM2LjAxNiAxMi4xNjE3IDM1LjI5ODggMTQuODI4NEMzNS4xMDM0IDE1LjU1NDQgMzUuMDc4NSAxNi4yODYyIDM1LjE5OTQgMTYuOTgxMkwzMC44ODU5IDE5LjM1MTJDMjkuODA3OSAxNy45ODgzIDI4LjI2NjcgMTcuMDA4NyAyNi41IDE2LjY1VjEzQzI2LjUgMTIuOTI0IDI2LjQ5NDMgMTIuODQ5MyAyNi40ODM0IDEyLjc3NjNaTTI1IDI4LjVDMjcuNDg1MyAyOC41IDI5LjUgMjYuNDg1MyAyOS41IDI0QzI5LjUgMjEuNTE0NyAyNy40ODUzIDE5LjUgMjUgMTkuNUMyMi41MTQ3IDE5LjUgMjAuNSAyMS41MTQ3IDIwLjUgMjRDMjAuNSAyNi40ODUzIDIyLjUxNDcgMjguNSAyNSAyOC41Wk0yNSA0MkMyNi4xMDQ2IDQyIDI3IDQxLjEwNDYgMjcgNDBDMjcgMzguODk1NCAyNi4xMDQ2IDM4IDI1IDM4QzIzLjg5NTQgMzggMjMgMzguODk1NCAyMyA0MEMyMyA0MS4xMDQ2IDIzLjg5NTQgNDIgMjUgNDJaTTQwLjY0NjYgMTQuMTk1OEM0MS43MTMzIDE0LjQ4MjcgNDIuMzQ1NCAxNS41OCA0Mi4wNTg1IDE2LjY0NjZDNDEuNzcxNiAxNy43MTMzIDQwLjY3NDMgMTguMzQ1NCAzOS42MDc2IDE4LjA1ODVDMzguNTQxIDE3Ljc3MTYgMzcuOTA4OSAxNi42NzQzIDM4LjE5NTggMTUuNjA3NkMzOC40ODI3IDE0LjU0MSAzOS41OCAxMy45MDg4IDQwLjY0NjYgMTQuMTk1OFpNNDAuNjc0MyAzNC4wNzM4QzQxLjczOTUgMzMuNzgxNSA0Mi4zNjYgMzIuNjgxIDQyLjA3MzcgMzEuNjE1OEM0MS43ODE0IDMwLjU1MDYgNDAuNjgwOSAyOS45MjQxIDM5LjYxNTcgMzAuMjE2NEMzOC41NTA1IDMwLjUwODggMzcuOTI0IDMxLjYwOTMgMzguMjE2MyAzMi42NzQ0QzM4LjUwODcgMzMuNzM5NiAzOS42MDkyIDM0LjM2NjEgNDAuNjc0MyAzNC4wNzM4WiIgY2xpcC1ydWxlPSJldmVub2RkIiBmaWxsLXJ1bGU9ImV2ZW5vZGQiLz4mI3hhOzxwYXRoIHN0cm9rZS13aWR0aD0iNCIgc3Ryb2tlPSJ1cmwoI3BhaW50MF9saW5lYXIpIiBkPSJNMTggMzVDMTIuNDc3MiAzNSA4IDMwLjA3NTEgOCAyNEM4IDE3LjkyNDkgMTIuNDc3MiAxMyAxOCAxMyIvPiYjeGE7PGRlZnM+JiN4YTs8bGluZWFyR3JhZGllbnQgZ3JhZGllbnRVbml0cz0idXNlclNwYWNlT25Vc2UiIHkyPSIzNSIgeDI9IjE4IiB5MT0iMTMiIHgxPSIxOCIgaWQ9InBhaW50MF9saW5lYXIiPiYjeGE7PHN0b3Agc3RvcC1jb2xvcj0iIzM5Q0RFRSIvPiYjeGE7PHN0b3Agc3RvcC1vcGFjaXR5PSIwLjQiIHN0b3AtY29sb3I9IiMzOENDRUQiIG9mZnNldD0iMSIvPiYjeGE7PC9saW5lYXJHcmFkaWVudD4mI3hhOzwvZGVmcz4mI3hhOzwvc3ZnPg==" parent="1" vertex="1">
          <mxGeometry x="-60" y="615.5" width="118.5" height="118.5" as="geometry" />
        </mxCell>
        <mxCell id="Exe1lYxw26IQHnq39bxL-11" style="edgeStyle=orthogonalEdgeStyle;rounded=0;orthogonalLoop=1;jettySize=auto;html=1;" parent="1" source="X9U1fQeeY0qdGe6NrVDz-17" target="Exe1lYxw26IQHnq39bxL-8" edge="1">
          <mxGeometry relative="1" as="geometry" />
        </mxCell>
        <mxCell id="Exe1lYxw26IQHnq39bxL-14" style="edgeStyle=orthogonalEdgeStyle;rounded=0;orthogonalLoop=1;jettySize=auto;html=1;entryX=0;entryY=0.5;entryDx=0;entryDy=0;dashed=1;" parent="1" source="X9U1fQeeY0qdGe6NrVDz-17" target="Exe1lYxw26IQHnq39bxL-9" edge="1">
          <mxGeometry relative="1" as="geometry">
            <Array as="points">
              <mxPoint x="610" y="582" />
            </Array>
          </mxGeometry>
        </mxCell>
        <mxCell id="X9U1fQeeY0qdGe6NrVDz-17" value="PostgreSQL&#xa;PostGIS" style="shape=image;verticalLabelPosition=bottom;verticalAlign=top;imageAspect=0;aspect=fixed;image=data:image/svg+xml,PHN2ZyB4bWxucz0iaHR0cDovL3d3dy53My5vcmcvMjAwMC9zdmciIHdpZHRoPSIyNTUuMzg2NDU5MzUwNTg1OTQiIHZpZXdCb3g9IjAuMjk3MzQ2MTE1MTEyMzA0NyAwLjM2NDM3NTY1MDg4MjcyMDk1IDI1NS4zODY0NTkzNTA1ODU5NCAyNjMuMjk4NDYxOTE0MDYyNSIgcHJlc2VydmVBc3BlY3RSYXRpbz0ieE1pZFlNaWQiIGhlaWdodD0iMjYzLjI5ODQ2MTkxNDA2MjUiPjxwYXRoIGQ9Im0yNTUuMDA3OTI2IDE1OC4wODU2MTdjLTEuNTM0ODE3LTQuNjQ4MjA0LTUuNTU1NzMyLTcuODg2MzM4LTEwLjc1NjEzOC04LjY2Mzc5Ny0yLjQ1MTgwNi0uMzY1OTY4LTUuMjYwMTIxLS4yMDk4ODUtOC41ODI4LjQ3NTM0NC01Ljc5MTYzIDEuMTk0ODY0LTEwLjA4ODY0NiAxLjY0OTUxNS0xMy4yMjQ0OTggMS43MzgxOTkgMTEuODM2MzA0LTE5Ljk4NTE0NiAyMS40NjE0MzEtNDIuNzc1NjQ5IDI3LjAwMjM4My02NC4yMjg4MDQxIDguOTU5NDA5LTM0LjY4ODI5NTYgNC4xNzE2NzctNTAuNDkxMTIyNC0xLjQyMzA3Ni01Ny42Mzk2MTItMTQuODA2NjE1LTE4LjkxOTE2ODYtMzYuNDA5MzQ5LTI5LjA4MzQ5MTkzLTYyLjQ3MjI3Ny0yOS4zOTUwNjY5OS0xMy45MDIwNDItLjE2OTY4MTMtMjYuMTA3ODYyIDIuNTc1MzcxODItMzIuNDc0MTYyIDQuNTQ4ODc3Ni01LjkyODIwMy0xLjA0NTI4NDA3LTEyLjMwMjc4MS0xLjYyOTQxMzQtMTguOTkxMjk4LTEuNzM3NjA3MzktMTIuNTM1NzIzLS4xOTk4MzM3Mi0yMy42MTI4OTYgMi41MzI4MDM2OS0zMy4wNzc4MDEgOC4xNDk0MzE4OC01LjI0MTIwMTMtMS43NzEzMDcxNy0xMy42NTAxODA1LTQuMjY5MjI4NjUtMjMuMzYyMjE3NC01Ljg2Mzc1OTgzLTIyLjg0MjUzMTItMy43NTAxMzM5NS00MS4yNTIwNjQ3LS44Mjc3MTM2Mi01NC43MTc3ODI5IDguNjg1MDgwODMtMTYuMzA1OTU4NDcgMTEuNTE4MjI2My0yMy44NjUzNDg3NyAzMS41Mjk5NzY5LTIyLjQ2NzEwMzk3IDU5LjQ4MDA5MjQuNDQzNDE4MDIgOC44NzQyNzI1IDUuNDA3OTI2MSAzNS44NzM2OTk2IDEzLjIyMzkwNzY3IDYxLjQ4MDIwMzYgNC40OTIxMiAxNC43MTczMzkgOS4yODIyMTcgMjYuOTM5NzEzIDE0LjIzNzI2NTUgMzYuMzI5NTMzIDcuMDI2Njk3NSAxMy4zMTQ5NTYgMTQuNTQ1MjkzMyAyMS4xNTYzNiAyMi45ODYxOTg3IDIzLjk3MTc2OSA0LjczMTU2NTggMS41NzY3OTUgMTMuMzI3MzcxOCAyLjY4MDAxOSAyMi4zNjg5NjA3LTQuODQ4NjI4IDEuMTQ1NzkyMSAxLjM4NzAxMiAyLjY3NDEwNjIgMi43NjYzMzcgNC43MDM3NzgzIDQuMDQ2OTI4IDIuNTc2NTU0MyAxLjYyNTI3NSA1LjcyNzc3ODMgMi45NTMxNjQgOC44NzQyNzI1IDMuNzQwMDg0IDExLjM0MTQ1MDQgMi44MzU1MSAyMS45NjQ1NjM5IDIuMTI2MDQxIDMxLjAyNzQzNjktMS44NDc1NzYuMDU1NTc1IDEuNjExNjc3LjA5ODczNCAzLjE1MTgxNi4xMzUzOSA0LjQ4MTQ3OS4wNjAzMDUgMi4xNTczNzYuMTE5NDI3IDQuMjcyMTg0LjE5ODY1MSA2LjI0OTgyOS41MzY4MzIgMTMuMzc0NjY5IDEuNDQ2NzI1IDIzLjc3MzcwOSA0LjE0MjcwNyAzMS4wNDkzMTEuMTQ3ODA2LjQwMDg1LjM0NzA0OCAxLjAxMDQwMi41NTc1MjQgMS42NTY2MSAxLjM0NDQ0NCA0LjExODQ2NyAzLjU5NDA1MSAxMS4wMTIxMzkgOS4zMTUzMjYgMTYuNDExNzg4IDUuOTI1ODM4IDUuNTkyMzg4IDEzLjA5MjY1NiA3LjMwODEyIDE5LjY1NjQyNSA3LjMwNzUyOSAzLjI5MTkzNSAwIDYuNDMzMTA4LS40MzE1OTQgOS4xODc2MjEtMS4wMjIyMjcgOS44MjA4MjItMi4xMDQxNjYgMjAuOTczNjcyLTUuMzEwOTY1IDI5LjA0MTUxNS0xNi43OTg0NDggNy42MjczODEtMTAuODYwMTk0IDExLjMzNTUzOC0yNy4yMTY5OTggMTIuMDA2NTc3LTUyLjk5MDgxNy4wODY5MS0uNzI4Mzg4LjE2NzMxNy0xLjQyNDI1OS4yNDQ3NjctMi4wODc2MTIuMDUyMDI4LS40NDc1NTcuMTA1MjM4LS45MDUxNjQuMTU5MDM5LTEuMzYxNTg5bDEuNzk3MzIxLjE1Nzg1Ni40NjI5MjkuMDMxMzM1YzEwLjAwMjMyOC40NTU4MzQgMjIuMjMyMzg4LTEuNjY1NDc4IDI5Ljc0MzI5OC01LjE1NDI5MSA1LjkzNTI5OC0yLjc1NDUxMiAyNC45NTM3OTItMTIuNzk0Njc5IDIwLjQ3NTg2MS0yNi4zNTE0NDUiLz48cGF0aCBmaWxsPSIjMzM2NzkxIiBkPSJtMjM3LjkwNTU4OSAxNjAuNzIyNDc2Yy0yOS43Mzk3NTEgNi4xMzQ1NC0zMS43ODQyMDMtMy45MzQ1OTYtMzEuNzg0MjAzLTMuOTM0NTk2IDMxLjQwMDQ5OS00Ni41OTMxODMgNDQuNTI2ODU0LTEwNS43MzYyNzcyIDMzLjE5OTAwMi0xMjAuMjExMjE0OS0zMC45MDMyNzktMzkuNDg0ODk2MDUtODQuMzk4NDExLTIwLjgxMTA4NTQtODUuMjkxMTU5LTIwLjMyNjI4MTdsLS4yODczMzUuMDUxNDM2NWMtNS44NzU1ODUtMS4yMTk2OTUyLTEyLjQ1MTE3OC0xLjk0NjMwOTUtMTkuODQxNDc4LTIuMDY2OTE5Mi0xMy40NTY4NS0uMjIwNTI2Ni0yMy42NjQzMzMgMy41Mjc4MzM3LTMxLjQwOTk1OSA5LjQwMTY0NDMgMCAwLTk1LjQzMDA1OTc3LTM5LjMxMzQ0MTEtOTAuOTkxNzQxMSA0OS40NDQwNjQ3Ljk0NDE4NDggMTguODgyNTEyNyAyNy4wNjM4NzA3IDE0Mi44NzM0MjIzIDU4LjIxODQyMDQgMTA1LjQyMjMzNzMgMTEuMzg2OTc0Ni0xMy42OTQ1MjIgMjIuMzg5MDYyMy0yNS4yNzM2NDQgMjIuMzg5MDYyMy0yNS4yNzM2NDQgNS40NjQ2ODM2IDMuNjMwMTE1IDEyLjAwNjU3NzQgNS40ODE4MjkgMTguODY0Nzc2NCA0LjgxNjcwMmwuNTMyNjkyLS40NTIyODdjLS4xNjU1NDIgMS43MDAzNjEtLjA4OTg2NiAzLjM2MzQ3NC4yMTM0MzIgNS4zMzIyNS04LjAyNTg2NiA4Ljk2NzA5NC01LjY2NzQ3MyAxMC41NDE1MjQtMjEuNzExNTE5MyAxMy44NDQxMDEtMTYuMjM0NDIwMyAzLjM0NTczNy02LjY5NzM4NTcgOS4zMDIzMTktLjQ3MDYxNDMgMTAuODU5MDEyIDcuNTQ4NzQ4MiAxLjg4Nzc3OCAyNS4wMTI5MTQ2IDQuNTYxODg0IDM2LjgxMzE1NDYtMTEuOTU2OTE1bC0uNDcwNjE0IDEuODg0ODIyYzMuMTQ0NzIgMi41MTg2MTUgNS4zNTI5NDIgMTYuMzgzNDA5IDQuOTgyODM2IDI4Ljk1MTY0OS0uMzcwMTA2IDEyLjU2ODgzMi0uNjE3MjM4IDIxLjE5Nzc0NiAxLjg2MDU4MiAyNy45Mzc3czQuOTQ3MzYyIDIxLjkwNDg1IDI2LjAzODY4OCAxNy4zODU1MzRjMTcuNjIzNzk3LTMuNzc2NzM5IDI2Ljc1NjQzNC0xMy41NjM4NjIgMjguMDI2OTc1LTI5Ljg4OTMzMS45MDE2MTYtMTEuNjA2MzE4IDIuOTQxOTMtOS44OTA1ODYgMy4wNzA4MTctMjAuMjY3MTU5bDEuNjM2NTA4LTQuOTEyNDhjMS44ODcxODctMTUuNzMzMDYzLjI5OTc1MS0yMC44MDg3MjEgMTEuMTU3NTgtMTguNDQ3OTYzbDIuNjM4NjMzLjIzMTc1OWM3Ljk5MTU3NS4zNjM2MDMgMTguNDUwOTE5LTEuMjg1MzIxIDI0LjU4OTU5OC00LjEzODU2OCAxMy4yMTg1ODYtNi4xMzQ1NCAyMS4wNTgyMTctMTYuMzc2OTA1IDguMDI0NjgzLTEzLjY4NTY1M3oiLz48ZyBmaWxsPSIjZmZmIj48cGF0aCBkPSJtMTA4LjA3NjM0MiA4MS41MjUwNjI0Yy0yLjY3OTQyNy0uMzczMDYyNC01LjEwNjk5My0uMDI3Nzg3Ni02LjMzNDk2Ni45MDE2MTY2LS42OTExNC41MjMyMzMyLS45MDQ1NzIgMS4xMjkyMzc5LS45NjE5MjEgMS41NDY2NDItLjE1NDMxIDEuMTA0OTk3Ny42MjAxOTQgMi4zMjY0NjY1IDEuMDk1NTM4IDIuOTU2NzExMyAxLjM0NTYyNiAxLjc4MzcyMjkgMy4zMTIwMzcgMy4wMDk5MjE1IDUuMjU4MzQ2IDMuMjgwMTEwOS4yODIwMTQuMDM5MDIwOC41NjIyNTUuMDU3OTM5OS44NDEzMTIuMDU3OTM5OSAzLjI0NTgyIDAgNi4xOTYwMjgtMi41MjY4OTE0IDYuNDU2MTY3LTQuMzkyMjAzMi4zMjUxNzMtMi4zMzU5MjYxLTMuMDY2MDg4LTMuODkzMjEwMi02LjM1NDQ3Ni00LjM1MDgxNzUiLz48cGF0aCBkPSJtMTk2Ljg2MDQ1MyA4MS41OTg5NjU0aC0uMDAwNTkyYy0uMjU1NDA4LTEuODMxMDIwOC0zLjUxNDIzNS0yLjM1MzA3MTYtNi42MDYzMzctMS45MjMyNTE4LTMuMDg3MzcyLjQzMDQxMTEtNi4wODE5MjEgMS44MjM5MjYxLTUuODMxODMzIDMuNjU5MDg1NS4yMDEwMTYgMS40MjcyMTQ4IDIuNzc2OTc5IDMuODYzNjQ4OSA1LjgyNzY5NSAzLjg2MzA1NzcuMjU3MTgyIDAgLjUxNzMyMS0uMDE3MTQ1NS43NzkyMzMtLjA1MzgwMTQgMi4wMzYxNzUtLjI4MjAxMzggMy41MzAxOTktMS41NzUwMjA4IDQuMjM5NjY3LTIuMzIwNTU0MiAxLjA4MTM0OS0xLjEzNTE1MDIgMS43MDYyNzMtMi40MDE1NTIgMS41OTIxNjctMy4yMjQ1MzU4Ii8+PHBhdGggZD0ibTI0Ny44MDIwODggMTYwLjAyNTQyM2MtMS4xMzM5NjgtMy40MjkxLTQuNzgzNTk0LTQuNTMyOTE1LTEwLjg0Nzc3OS0zLjI4MDExMS0xOC4wMDUxMzYgMy43MTU4NDMtMjQuNDUzMDI1IDEuMTQxNjUzLTI2LjU3MDc4OS0uNDE3NDA0IDEzLjk5NTQ1NS0yMS4zMjA3MjEgMjUuNTA4MzYtNDcuMDkxNTg1IDMxLjcxOTE2OC03MS4xMzcyNTY3IDIuOTQyNTIyLTExLjM4OTkzMDcgNC41Njc3OTctMjEuOTY3NTE5NyA0LjcwMDIzMS0zMC41ODg3NDgzLjE0NjYyNC05LjQ2NDMxNDEtMS40NjQ0NjItMTYuNDE3Njk5OC00Ljc4ODkxNC0yMC42NjU2NDQzLTEzLjQwMjQ1OC0xNy4xMjUzOTUtMzMuMDcxODktMjYuMzExMjQyNTMtNTYuODgyMjU0LTI2LjU2MzY5NTE5LTE2LjM2ODYyOS0uMTgzODcwNjctMzAuMTk4NTQxIDQuMDA1NTQyNjktMzIuODc5NzQyIDUuMTgzMjYwOTktNS42NDYxODktMS40MDQxNTcxLTExLjgwMTQyMi0yLjI2NjE2MTctMTguNTAxNzY0LTIuMzc2MTI5My0xMi4yODg1OTEtLjE5ODY1MTMyLTIyLjkwOTkzMSAyLjc0MzI3OTQtMzEuNzA0Mzg4IDguNzM5NDczNC0zLjgxOTg5ODYtMS40MjEzMDI1LTEzLjY5MjE1NzItNC44MTAxOTg2LTI1Ljc2NDM2MDUtNi43NTQ3MzQ0LTIwLjg3MjU3MjctMy4zNjExMDg1Ni0zNy40NTgxODAxLS44MTQ3MDY3LTQ5LjI5NDQ4NSA3LjU3MDYyMzUtMTQuMTIzMTU5MyAxMC4wMDU4NzUzLTIwLjY0MzE3Nzc4IDI3Ljg5MTU4NDMtMTkuMzc5NzMyMDUgNTMuMTU5MzE2NC40MjUwOTAwNyA4LjUwMTgwMTQgNS4yNjgzOTcyNSAzNC42NTM0MTM5IDEyLjkxMjkyMzc1IDU5LjY5ODg0NDkgMTAuMDYyMDQxNiAzMi45NjM2OTYgMjAuOTk5MDk0NyA1MS42MjUwOSAzMi41MDc4NjE1IDU1LjQ2MzMxNyAxLjM0NjgwODMuNDQ5MzMgMi45MDA1NDUuNzYzODYxIDQuNjEyNzI5OC43NjM4NjEgNC4xOTgyODE3IDAgOS4zNDQ4ODY4LTEuODkyNTA4IDE0LjcwMDE5NC04LjMzMDM0NiA4Ljg5NDk2NTMtMTAuNzAxMTU1IDE3LjE5OTg4OTEtMTkuNjY4MjUgMjAuMjYxMjQ3MS0yMi45MjY0ODUgNC41MjQwNDYyIDIuNDI4NzQ4IDkuNDkzMjg0NCAzLjc4NDQyNSAxNC41NzcyMTk0IDMuOTIwNDA2LjAwODg2OC4xMzMwMjYuMDIyNDY2LjI2NjA1MS4wMzQyOTEuMzk4NDg1LTEuMDE5ODYxIDEuMjA5NjQ1LTEuODU2NDQzIDIuMjY5NzA5LTIuNTY5NDYgMy4xNzQ4NzMtMy41MjE5MjEgNC40NzA4MzYtNC4yNTUwMzkgNS40MDE0MjMtMTUuNTkyMzUwNyA3LjczNjE2Ny0zLjIyNDUzNTguNjY1MTI3LTExLjc5MDc4MDYgMi40MzA1MjEtMTEuOTE1NTI4OCA4LjQzNDQwMS0uMTM2NTcyOCA2LjU1OTYzMSAxMC4xMjQxMjAxIDkuMzE0NzM1IDExLjI5MzU2MTIgOS42MDY3OTkgNC4wNzQxMjQ3IDEuMDE5ODYyIDcuOTk4NjY5NyAxLjUyMjk5NCAxMS43NDE3MDkzIDEuNTIyOTk0IDkuMTAzNjY3LS4wMDA1OTIgMTcuMTE0MTYxLTIuOTkyMTg1IDIzLjUxNjUyNi04Ljc4MDg2LS4xOTc0NjkgMjMuMzg1ODY2Ljc3ODA1MSA0Ni40MzAwMDUgMy41ODU3NzQgNTMuNDUxMzgxIDIuMjk5MjcgNS43NDcyODkgNy45MTc2NzIgMTkuNzk0NzcyIDI1LjY2NDQ0MyAxOS43OTM1ODkgMi42MDMxNiAwIDUuNDcwMDA1LS4zMDI3MDYgOC42MjMwMDMtLjk3ODQ3NSAxOC41MjA2ODMtMy45NzEyNTIgMjYuNTYzMTA0LTEyLjE1Njc0OSAyOS42NzQ3MTYtMzAuMjAzMjcxIDEuNjY0ODg2LTkuNjQ0NjM3IDQuNTIyMjcyLTMyLjY3NjM2IDUuODY1NTMzLTQ1LjAyOTk4NiAyLjgzNjEwMi44ODQ0NzEgNi40ODc1MDEgMS4yODk0NiAxMC40MzQ1MTMgMS4yODg4NjkgOC4yMzIyMDMgMCAxNy43MzA4MDgtMS43NDg4NDEgMjMuNjg3OTgxLTQuNTEzOTk2IDYuNjkxNDc0LTMuMTA3NDczIDE4Ljc2NzgxNi0xMC43MzQyNjMgMTYuNTc3OTIyLTE3LjM1OTUxOXptLTQ0LjEwNTkwMy04My40ODA4MzE4Yy0uMDYxNDg4IDMuNjQ3MjYxLS41NjM0MzcgNi45NTgxMTU1LTEuMDk1NTM4IDEwLjQxNDQxMTEtLjU3MjMwNSAzLjcxNzAyNTQtMS4xNjQ3MTIgNy41NTk5ODE1LTEuMzEzNyAxMi4yMjUzMzAzLS4xNDcyMTUgNC41NDAwMDk0LjQxOTc2OSA5LjI2MDM0MTQuOTY4NDI1IDEzLjgyNDU5MTQgMS4xMDc5NTQgOS4yMTk1NDcgMi4yNDQ4NzcgMTguNzExNjQ5LTIuMTU2Nzg1IDI4LjA3NzgyLS42ODQwNDctMS4yMTQ5NjYtMS4zNDQ0NDQtMi41NDA0OS0xLjk0OTg1Ny00LjAwODQ5OS0uNTQ2ODgyLTEuMzI2MTE2LTEuNzM0NjUxLTMuNDU2Mjk2LTMuMzc4ODQ1LTYuNDA0NzMtNi4zOTk0MDktMTEuNDc1NjU4LTIxLjM4NDU3My0zOC4zNDkxNTQ3LTEzLjcxMzQ0Mi00OS4zMTUxNzc4IDIuMjg0NDktMy4yNjQ3MzkgOC4wODMyMTUtNi42MTk5MzU0IDIyLjYzOTc0Mi00LjgxMzc0NnptLTE3LjY0Mzg5OS02MS43ODY0NTczYzIxLjMzMzcyOC40NzEyMDU2IDM4LjIwOTAzNSA4LjQ1MjEzODYgNTAuMTU3NjcyIDIzLjcxOTkwNzcgOS4xNjM5NzMgMTEuNzEwOTY1My0uOTI3MDM5IDY0Ljk5Nzk4NjQtMzAuMTQwMDA5IDExMC45Njg2MDk0LS4yODg1MTctLjM2NjU1OS0uNTgyMzU1LS43MzY2NjUtLjg4NjI0NS0xLjExNjIzMS0uMTIxMjAxLS4xNTE5NDQtLjI0NDc2Ni0uMzA2MjU0LS4zNjk1MTUtLjQ2MjMzNyA3LjU0ODc0OS0xMi40NjcxNDEgNi4wNzI0NjItMjQuODAxODQ3IDQuNzU4NzYzLTM1LjczODMwOS0uNTM5Nzg4LTQuNDg3OTgyLTEuMDQ5NDIzLTguNzI3MDU4LS45MTk5NDUtMTIuNzA4MzYwNi4xMzQyMDgtNC4yMjEzMzk1LjY5MjMyMy03Ljg0MDIyMTcgMS4yMzE1Mi0xMS4zNDAyNjc5LjY2Mzk0NC00LjMxMzU3MDQgMS4zMzg1MzEtOC43NzYxMjkzIDEuMTUyMjk1LTE0LjAzNzQzMTkuMTM4OTM4LS41NTE2MTIuMTk1MTA0LTEuMjAzNzMyMS4xMjIzODQtMS45Nzc2NDQzLS40NzUzNDUtNS4wNDU1MDU4LTYuMjM1MDQ5LTIwLjE0MzU5MzUtMTcuOTc1NTc2LTMzLjgxMDkxOTItNi40MjEyODQtNy40NzQyNTQtMTUuNzg2ODYzLTE1LjgzOTQ4MjctMjguNTczODU2LTIxLjQ4MTUzMzUgNS41MDAxNTctMS4xMzk4Nzk5IDEzLjAyMTcwOS0yLjIwMjkwMDcgMjEuNDQyNTEyLTIuMDE1NDgyN3ptLTExOS4zNzgxNzk4IDE2MS4wMTk4NjExYy01Ljg5OTgyNDQgNy4wOTM1MDYtOS45NzQ1NDA0IDUuNzM0MjgyLTExLjMxNDI1NCA1LjI4NzkwOC04LjczMDYwNTEtMi45MTIzNy0xOC44NjAwNDYyLTIxLjM2Mzg4LTI3Ljc5MTA3NjItNTAuNjI0MTQ4LTcuNzI3ODg5Mi0yNS4zMTc5ODYtMTIuMjQ0MjQ5NC01MC43NzY2ODM0LTEyLjYwMTM0ODctNTcuOTE1NzEzNC0xLjEyODY0NjctMjIuNTc3NjYyOCA0LjM0NDMxNC0zOC4zMTMwOTAxIDE2LjI2NzUyODgtNDYuNzY4Nzc2IDE5LjQwMzk3MjMtMTMuNzYwNzM5IDUxLjMwNjQyMDMtNS41MjQzOTcyIDY0LjEyNTMzOTUtMS4zNDY4MDgzLS4xODQ0NjE5LjE4MTUwNTctLjM3NjAxODUuMzUxNzc4My0uNTU4NzA2Ny41MzYyNDAyLTIxLjAzNTE1OTMgMjEuMjQ0NDUyNi0yMC41MzYxNjYzIDU3LjU0MDg3NzYtMjAuNDg0NzI5OCA1OS43NTkxNTAxLS4wMDE3NzM2Ljg1NjA5MjQuMDY5NzY0NSAyLjA2ODEwMTYuMTY4NDk4OSAzLjczNTM1MzMuMzYxODI5MSA2LjEwNDM4OCAxLjAzNTIzMzIgMTcuNDY2NTMxMS0uNzYzODYxNSAzMC4zMzM5MzExLTEuNjcyNTcyNyAxMS45NTY5MTQgMi4wMTMxMTc4IDIzLjY2MDE5NCAxMC4xMTA1MjIgMzIuMTA4Nzg1LjgzODM1NTYuODc0NDIgMS43MTMzNjcyIDEuNjk1NjMgMi42MTczNDg3IDIuNDY4MzYtMy42MDQ2OTI4IDMuODYwMTAyLTExLjQzNzgxOTkgMTIuMzk1NjAzLTE5Ljc3NTI2MSAyMi40MjU3MTh6bTIyLjQ3ODkyODQtMjkuOTkzMzg1Yy02LjUyNjUyMTktNi44MDkxMjctOS40OTAzMjc5LTE2LjI4MTEyNy04LjEzMjg3NzYtMjUuOTg5MDI2IDEuOTAwMTk0LTEzLjU5MjgzMSAxLjE5ODQxMTEtMjUuNDMwOTA5Ni44MjE4MDE0LTMxLjc5MDcwNjQtLjA1MjYxODktLjg4OTc5MjEtLjA5OTMyNTYtMS42Njk2MTY2LS4xMjcxMTMxLTIuMjg1MDgwOCAzLjA3MzE4MjQtMi43MjQzNjAzIDE3LjMxMzk5NTMtMTAuMzU1Mjg4NyAyNy40Njk0NTA3LTguMDI4MjMxIDQuNjM1MTk2IDEuMDYxODM4NCA3LjQ1ODI5MSA0LjIxNzIwMDkgOC42MzI0NjIgOS42NDU4MTk5IDYuMDc2NiAyOC4xMDI2NTEzLjgwNDY1NSAzOS44MTU5ODEzLTMuNDMxNDY1IDQ5LjIyODI2ODMtLjg3MzIzOCAxLjkzOTIxNC0xLjY5Nzk5NSAzLjc3MjAwOS0yLjQwMjczNCA1LjY2ODY1NWwtLjU0NTcgMS40NjU2NDVjLTEuMzgyMjgyIDMuNzA2MzgzLTIuNjY4MTk0IDcuMTUyMDM3LTMuNDY1MTY0IDEwLjQyNDQ2Mi02LjkzNzQyMi0uMDIxMjg0LTEzLjY4NjgzNTktMi45ODQ0OTktMTguODE4NjYwNC04LjMzOTgwNnptMS4wNjQ3OTQ1IDM3LjkwMDQxNWMtMi4wMjU1MzM1LS41MDYwODctMy44NDc2ODU5LTEuMzg1MjM3LTQuOTE2NjE4OS0yLjExNDIxNy44OTI3NDgyLS40MjAzNiAyLjQ4MTk1ODQtLjk5MTQ4MiA1LjIzNzY1MzUtMS41NTkwNTcgMTMuMzM3NDIyMy0yLjc0NjIzNiAxNS4zOTY2NTYzLTQuNjgzNjc3IDE5Ljg5NDY4ODMtMTAuMzk0OTAxIDEuMDMxNjg2LTEuMzA4OTcgMi4yMDA1MzYtMi43OTM1MzQgMy44MTkzMDctNC42MDE0OTcuMDAwNTkxLS4wMDExODIuMDAxMTgzLS4wMDE3NzMuMDAxNzc0LS4wMDIzNjUgMi40MTE2MDMtMi42OTk1MjggMy41MTQyMzUtMi4yNDE5MjEgNS41MTQzNDYtMS40MTI0MzQgMS42MjExMzYuNjcxMDQgMy4xOTk3MDUgMi43MDI0ODUgMy44NCA0LjkzODQ5NC4zMDI3MDcgMS4wNTU5MjcuNjQzMjUyIDMuMDYwNzY3LS40NzAwMjMgNC42MTk4MjUtOS4zOTYzMjMgMTMuMTU1OTE3LTIzLjA4Nzg4OSAxMi45ODY4MjctMzIuOTIxMTI2OSAxMC41MjYxNTJ6bTY5Ljc5ODcyNDkgNjQuOTUyNDYyYy0xNi4zMTYwMDkgMy40OTU5MDgtMjIuMDkyODU5LTQuODI5MTE3LTI1Ljg5OTc1LTE0LjM0NjA1MS0yLjQ1NzEyNy02LjE0NDU5MS0zLjY2NDQwNy0zMy44NTExMjItMi44MDc3MjMtNjQuNDQ3NTU2LjAxMTIzMy0uNDA3MzUzLS4wNDY3MDctLjgwMDUxNy0uMTU5MDM5LTEuMTcwMDMyLS4wOTc1NTItLjcxMzYwOC0uMjQ3NzIzLTEuNDM1NDkyLS40NTU4MzQtMi4xNjIxMDctMS4yNzQ2NzktNC40NTE5MTctNC4zNzkxOTYtOC4xNzYwMzctOC4xMDM5MDgtOS43MTk3MjMtMS40Nzk4MzMtLjYxMzA5OS00LjE5NjUwOC0xLjczODE5OC03LjQ2MDY1Ni0uOTAzMzkuNjk2NDYyLTIuODY4MDI4IDEuOTAzNzQyLTYuMTA2MTYxIDMuMjEyMTItOS42MTMzMDJsLjU0OTI0OC0xLjQ3NTY5NmMuNjE4NDItMS42NjMxMTMgMS4zOTM1MTUtMy4zODU5MzkgMi4yMTQxMzMtNS4yMDkyNzQgNC40MzI5OTgtOS44NDg2MSAxMC41MDQyNzgtMjMuMzM3Mzg2IDMuOTE1MDg2LTUzLjgxMDg0NTYtMi40NjgzNi0xMS40MTM1Nzk3LTEwLjcxMDAyMy0xNi45ODcwNDg1LTIzLjIwNDM2LTE1LjY5Mjg1OTEtNy40OTA4MDg2Ljc3NTA5NDctMTQuMzQzMDk1IDMuNzk3NDMxOC0xNy43NjA5NjExIDUuNTMwMzA5NC0uNzM0ODkxNC4zNzI0NzEyLTEuNDA3MTEzMS43MzE5MzU0LTIuMDM0OTkzIDEuMDgyNTMxMi45NTM2NDQzLTExLjUwMDQ4OTYgNC41NTgzMzcxLTMyLjk5MjA3MzkgMTguMDQwNjEwMS00Ni41ODk2MzUxIDguNDg4MjAzLTguNTYwOTIzOCAxOS43OTM1ODgtMTIuNzg4NzY2NyAzMy41Njc5MjYtMTIuNTYxMTQ1NSAyNy4xNDAxMzguNDQ0NjAwNSA0NC41NDQgMTQuMzcyNjU1OSA1NC4zNjYwMDQgMjUuOTc4OTc0NiA4LjQ2MzM3MiAxMC4wMDE3MzY3IDEzLjA0NjU0MSAyMC4wNzYxOTQgMTQuODc1Nzg4IDI1LjUwOTU0MjctMTMuNzU0ODI3LTEuMzk4MjQ0OC0yMy4xMDk3NjUgMS4zMTcyNDcyLTI3Ljg1MjU2NCA4LjA5NjgxMy0xMC4zMTY4NTkgMTQuNzQ3NDkxOSA1LjY0NDQxNiA0My4zNzIxOTQ0IDEzLjMxNTU0OCA1Ny4xMjg3OTQ0IDEuNDA2NTIyIDIuNTIxNTcgMi42MjA4OTYgNC43MDAyMzEgMy4wMDI4MjYgNS42MjYwODggMi40OTc5MjIgNi4wNTQxMzQgNS43MzE5MTcgMTAuMDk1NzQxIDguMDkzMjY2IDEzLjA0NjU0LjcyMzY1OC45MDM5ODIgMS40MjYwMzIgMS43ODA3NjcgMS45NTk5MDggMi41NDY0MDItNC4xNjU3NjUgMS4yMDEzNjctMTEuNjQ4ODg3IDMuOTc1OTgyLTEwLjk2NzIwNiAxNy44NDY2ODgtLjU0OTgzOCA2Ljk2MDQ4MS00LjQ2MTM3NiAzOS41NDYzODQtNi40NDc4ODkgNTEuMDU5Mjg5LTIuNjIyNjcgMTUuMjA5ODI5LTguMjE5Nzg4IDIwLjg3NTUyOS0yMy45NTc1OCAyNC4yNDk2NDR6bTY4LjEwNDI3Ny03Ny45MzY5MjNjLTQuMjU5NzY5IDEuOTc3NjQ0LTExLjM4ODc0OCAzLjQ2MTAyNS0xOC4xNjEyMTkgMy43NzkxMDMtNy40ODAxNjYuMzUwNTk2LTExLjI4NzY0OS0uODM3NzY0LTEyLjE4MzM1My0xLjU2ODUxNy0uNDIwOTUyLTguNjQzNjk1IDIuNzk3MDgtOS41NDcwODUgNi4yMDE5NC0xMC41MDMwOTUuNTM1MDU3LS4xNTA3NjIgMS4wNTcxMDgtLjI5Njc5NCAxLjU2MDgzMS0uNDcyOTc5LjMxMzM0OS4yNTQ4MTguNjU2MjU5LjUwNzg2MiAxLjAzMTY4Ni43NTU1ODUgNi4wMTIxNTcgMy45NjgyOTUgMTYuNzM1Nzc4IDQuMzk2MzQxIDMxLjg3NDA2OSAxLjI3MTcyMi4wNTU1NzUtLjAxMTgyNC4xMTExNS0uMDIyNDY2LjE2NjEzNC0uMDMzNjk5LTIuMDQxNDk2IDEuOTA5MDYyLTUuNTM1NjMgNC40NzE0MjctMTAuNDkwMDg4IDYuNzcxODh6Ii8+PC9nPjwvc3ZnPg==" parent="1" vertex="1">
          <mxGeometry x="560" y="230" width="95" height="97.98" as="geometry" />
        </mxCell>
        <mxCell id="Exe1lYxw26IQHnq39bxL-13" style="edgeStyle=orthogonalEdgeStyle;rounded=0;orthogonalLoop=1;jettySize=auto;html=1;" parent="1" source="X9U1fQeeY0qdGe6NrVDz-18" target="Exe1lYxw26IQHnq39bxL-9" edge="1">
          <mxGeometry relative="1" as="geometry" />
        </mxCell>
        <mxCell id="X9U1fQeeY0qdGe6NrVDz-18" value="[Redis]&lt;br&gt;Data Caching" style="image;sketch=0;aspect=fixed;html=1;points=[];align=center;fontSize=12;image=img/lib/mscae/Cache_Redis_Product.svg;" parent="1" vertex="1">
          <mxGeometry x="1150" y="243.99" width="83.33" height="70" as="geometry" />
        </mxCell>
        <mxCell id="Exe1lYxw26IQHnq39bxL-7" style="edgeStyle=orthogonalEdgeStyle;rounded=0;orthogonalLoop=1;jettySize=auto;html=1;exitX=0.5;exitY=0;exitDx=0;exitDy=0;" parent="1" source="X9U1fQeeY0qdGe6NrVDz-19" target="X9U1fQeeY0qdGe6NrVDz-17" edge="1">
          <mxGeometry relative="1" as="geometry">
            <Array as="points">
              <mxPoint x="318" y="280" />
            </Array>
          </mxGeometry>
        </mxCell>
        <mxCell id="X9U1fQeeY0qdGe6NrVDz-19" value="[Consumer]&#xa;PostgreSQL&#xa;Sync Connector" style="shape=image;verticalLabelPosition=bottom;verticalAlign=top;imageAspect=0;aspect=fixed;image=data:image/svg+xml,PHN2ZyB4bWxucz0iaHR0cDovL3d3dy53My5vcmcvMjAwMC9zdmciIGhlaWdodD0iOTZweCIgd2lkdGg9Ijk2cHgiIHZpZXdCb3g9IjAgMCA0OCA0OCI+PHBhdGggZD0iTTQzLjk4MiwyMy42MzVjMC4wNjktNC4yNjEtMC44OTEtOS4zMjgtMi44OTEtMTUuMjczbC0xLjU2OC00LjY2MmwtMi4xMyw0LjQzMyBjLTAuMTE0LDAuMjM3LTAuMjQ0LDAuNDY5LTAuMzgsMC42OThDMzMuNTE0LDUuODI3LDI4Ljk3NCw0LDI0LDRDMTIuOTU0LDQsNCwxMi45NTQsNCwyNGMwLDExLjA0Niw4Ljk1NCwyMCwyMCwyMHMyMC04Ljk1NCwyMC0yMCBDNDQsMjMuODc3LDQzLjk4NCwyMy43NTgsNDMuOTgyLDIzLjYzNXoiIGZpbGw9IiM4YmMzNGEiLz48cGF0aCBkPSJNMzkuMzg1IDMyLjU1OGMtMy4xMjMgNC4zMDItOC42NTEgNC41MzMtMTMuODU0IDQuNDQySDE4Ljc1aC0xLjkzOGM0LjQyOC0xLjU5MyA3LjA2My0xLjk3MiA5Ljc1NC0zLjQgNS4wNjgtMi42NjUgMTAuMDc4LTguNDk2IDExLjEyMS0xNC41NjItMS45MyA1LjgzNi03Ljc3OSAxMC44NS0xMy4xMDkgMTIuODg5LTMuNjUyIDEuMzkzLTEwLjI0OCAyLjc0NS0xMC4yNDggMi43NDVsLS4yNjctLjE0NUM5LjU3MyAzMi4yNjggOS40MzcgMjIuMjE0IDE3LjYgMTguOTY4YzMuNTc0LTEuNDIzIDYuOTkzLS42NDEgMTAuODU0LTEuNTkzIDQuMTIyLTEuMDEyIDguODktNC4yMDggMTAuODMtOC4zNzVDNDEuNDU2IDE1LjY2NyA0NC4wNyAyNi4xMDYgMzkuMzg1IDMyLjU1OEwzOS4zODUgMzIuNTU4ek0xNS42NjggMzguNDQ1QzE1LjM4NiAzOC43OTUgMTQuOTU1IDM5IDE0LjUwNSAzOWMtLjgyMyAwLTEuNDk1LS42NzctMS40OTUtMS41cy42NzctMS41IDEuNDk1LTEuNWMuMzQxIDAgLjY3Ny4xMTguOTQxLjMzNkMxNi4wODYgMzYuODU1IDE2LjE4NiAzNy44MDUgMTUuNjY4IDM4LjQ0NUwxNS42NjggMzguNDQ1eiIgZmlsbD0iI2ZmZiIvPjwvc3ZnPg==" parent="1" vertex="1">
          <mxGeometry x="270" y="446.5" width="96" height="96" as="geometry" />
        </mxCell>
        <mxCell id="Exe1lYxw26IQHnq39bxL-18" style="edgeStyle=orthogonalEdgeStyle;rounded=0;orthogonalLoop=1;jettySize=auto;html=1;" parent="1" source="X9U1fQeeY0qdGe6NrVDz-20" target="Exe1lYxw26IQHnq39bxL-17" edge="1">
          <mxGeometry relative="1" as="geometry" />
        </mxCell>
        <mxCell id="X9U1fQeeY0qdGe6NrVDz-20" value="[Consumer]&#xa;[ Procedure]&#xa;GeoFencing&#xa;" style="shape=image;verticalLabelPosition=bottom;verticalAlign=top;imageAspect=0;aspect=fixed;image=data:image/svg+xml,PHN2ZyB4bWxucz0iaHR0cDovL3d3dy53My5vcmcvMjAwMC9zdmciIGhlaWdodD0iOTZweCIgd2lkdGg9Ijk2cHgiIHZpZXdCb3g9IjAgMCA0OCA0OCI+PHBhdGggZD0iTTQzLjk4MiwyMy42MzVjMC4wNjktNC4yNjEtMC44OTEtOS4zMjgtMi44OTEtMTUuMjczbC0xLjU2OC00LjY2MmwtMi4xMyw0LjQzMyBjLTAuMTE0LDAuMjM3LTAuMjQ0LDAuNDY5LTAuMzgsMC42OThDMzMuNTE0LDUuODI3LDI4Ljk3NCw0LDI0LDRDMTIuOTU0LDQsNCwxMi45NTQsNCwyNGMwLDExLjA0Niw4Ljk1NCwyMCwyMCwyMHMyMC04Ljk1NCwyMC0yMCBDNDQsMjMuODc3LDQzLjk4NCwyMy43NTgsNDMuOTgyLDIzLjYzNXoiIGZpbGw9IiM4YmMzNGEiLz48cGF0aCBkPSJNMzkuMzg1IDMyLjU1OGMtMy4xMjMgNC4zMDItOC42NTEgNC41MzMtMTMuODU0IDQuNDQySDE4Ljc1aC0xLjkzOGM0LjQyOC0xLjU5MyA3LjA2My0xLjk3MiA5Ljc1NC0zLjQgNS4wNjgtMi42NjUgMTAuMDc4LTguNDk2IDExLjEyMS0xNC41NjItMS45MyA1LjgzNi03Ljc3OSAxMC44NS0xMy4xMDkgMTIuODg5LTMuNjUyIDEuMzkzLTEwLjI0OCAyLjc0NS0xMC4yNDggMi43NDVsLS4yNjctLjE0NUM5LjU3MyAzMi4yNjggOS40MzcgMjIuMjE0IDE3LjYgMTguOTY4YzMuNTc0LTEuNDIzIDYuOTkzLS42NDEgMTAuODU0LTEuNTkzIDQuMTIyLTEuMDEyIDguODktNC4yMDggMTAuODMtOC4zNzVDNDEuNDU2IDE1LjY2NyA0NC4wNyAyNi4xMDYgMzkuMzg1IDMyLjU1OEwzOS4zODUgMzIuNTU4ek0xNS42NjggMzguNDQ1QzE1LjM4NiAzOC43OTUgMTQuOTU1IDM5IDE0LjUwNSAzOWMtLjgyMyAwLTEuNDk1LS42NzctMS40OTUtMS41cy42NzctMS41IDEuNDk1LTEuNWMuMzQxIDAgLjY3Ny4xMTguOTQxLjMzNkMxNi4wODYgMzYuODU1IDE2LjE4NiAzNy44MDUgMTUuNjY4IDM4LjQ0NUwxNS42NjggMzguNDQ1eiIgZmlsbD0iI2ZmZiIvPjwvc3ZnPg==" parent="1" vertex="1">
          <mxGeometry x="270" y="807.5" width="96" height="96" as="geometry" />
        </mxCell>
        <mxCell id="Exe1lYxw26IQHnq39bxL-1" value="" style="group" parent="1" vertex="1" connectable="0">
          <mxGeometry x="1920" y="445" width="461.74" height="320" as="geometry" />
        </mxCell>
        <mxCell id="XxiWRASYGu8GMnkAIA-_-2" value="" style="image;aspect=fixed;perimeter=ellipsePerimeter;html=1;align=center;shadow=0;dashed=0;spacingTop=3;image=img/lib/active_directory/internet_cloud.svg;" parent="Exe1lYxw26IQHnq39bxL-1" vertex="1">
          <mxGeometry x="-125.87" y="-7.5" width="531.74" height="335" as="geometry" />
        </mxCell>
        <mxCell id="X9U1fQeeY0qdGe6NrVDz-22" value="" style="verticalLabelPosition=bottom;aspect=fixed;html=1;shape=mxgraph.salesforce.web;" parent="Exe1lYxw26IQHnq39bxL-1" vertex="1">
          <mxGeometry x="120" y="106" width="83.8" height="66.2" as="geometry" />
        </mxCell>
        <mxCell id="X9U1fQeeY0qdGe6NrVDz-23" value="" style="image;aspect=fixed;perimeter=ellipsePerimeter;html=1;align=center;shadow=0;dashed=0;spacingTop=3;image=img/lib/active_directory/web_server.svg;" parent="Exe1lYxw26IQHnq39bxL-1" vertex="1">
          <mxGeometry y="103.25" width="54" height="67.5" as="geometry" />
        </mxCell>
        <mxCell id="X9U1fQeeY0qdGe6NrVDz-24" value="" style="verticalLabelPosition=bottom;aspect=fixed;html=1;shape=mxgraph.salesforce.web;" parent="Exe1lYxw26IQHnq39bxL-1" vertex="1">
          <mxGeometry x="123.93" width="75.95" height="60" as="geometry" />
        </mxCell>
        <mxCell id="X9U1fQeeY0qdGe6NrVDz-25" value="" style="verticalLabelPosition=bottom;aspect=fixed;html=1;shape=mxgraph.salesforce.web;" parent="Exe1lYxw26IQHnq39bxL-1" vertex="1">
          <mxGeometry x="120" y="232.3" width="85.7" height="67.7" as="geometry" />
        </mxCell>
        <mxCell id="Exe1lYxw26IQHnq39bxL-12" style="edgeStyle=orthogonalEdgeStyle;rounded=0;orthogonalLoop=1;jettySize=auto;html=1;" parent="1" source="Exe1lYxw26IQHnq39bxL-8" target="X9U1fQeeY0qdGe6NrVDz-18" edge="1">
          <mxGeometry relative="1" as="geometry" />
        </mxCell>
        <mxCell id="Exe1lYxw26IQHnq39bxL-8" value="[Spring Boot]&#xa;Batch Server&#xa;Convert Data &amp; Redis Sync" style="shape=image;verticalLabelPosition=bottom;verticalAlign=top;imageAspect=0;aspect=fixed;image=data:image/svg+xml,PHN2ZyB4bWxucz0iaHR0cDovL3d3dy53My5vcmcvMjAwMC9zdmciIGhlaWdodD0iOTZweCIgd2lkdGg9Ijk2cHgiIHZpZXdCb3g9IjAgMCA0OCA0OCI+PHBhdGggZD0iTTQzLjk4MiwyMy42MzVjMC4wNjktNC4yNjEtMC44OTEtOS4zMjgtMi44OTEtMTUuMjczbC0xLjU2OC00LjY2MmwtMi4xMyw0LjQzMyBjLTAuMTE0LDAuMjM3LTAuMjQ0LDAuNDY5LTAuMzgsMC42OThDMzMuNTE0LDUuODI3LDI4Ljk3NCw0LDI0LDRDMTIuOTU0LDQsNCwxMi45NTQsNCwyNGMwLDExLjA0Niw4Ljk1NCwyMCwyMCwyMHMyMC04Ljk1NCwyMC0yMCBDNDQsMjMuODc3LDQzLjk4NCwyMy43NTgsNDMuOTgyLDIzLjYzNXoiIGZpbGw9IiM4YmMzNGEiLz48cGF0aCBkPSJNMzkuMzg1IDMyLjU1OGMtMy4xMjMgNC4zMDItOC42NTEgNC41MzMtMTMuODU0IDQuNDQySDE4Ljc1aC0xLjkzOGM0LjQyOC0xLjU5MyA3LjA2My0xLjk3MiA5Ljc1NC0zLjQgNS4wNjgtMi42NjUgMTAuMDc4LTguNDk2IDExLjEyMS0xNC41NjItMS45MyA1LjgzNi03Ljc3OSAxMC44NS0xMy4xMDkgMTIuODg5LTMuNjUyIDEuMzkzLTEwLjI0OCAyLjc0NS0xMC4yNDggMi43NDVsLS4yNjctLjE0NUM5LjU3MyAzMi4yNjggOS40MzcgMjIuMjE0IDE3LjYgMTguOTY4YzMuNTc0LTEuNDIzIDYuOTkzLS42NDEgMTAuODU0LTEuNTkzIDQuMTIyLTEuMDEyIDguODktNC4yMDggMTAuODMtOC4zNzVDNDEuNDU2IDE1LjY2NyA0NC4wNyAyNi4xMDYgMzkuMzg1IDMyLjU1OEwzOS4zODUgMzIuNTU4ek0xNS42NjggMzguNDQ1QzE1LjM4NiAzOC43OTUgMTQuOTU1IDM5IDE0LjUwNSAzOWMtLjgyMyAwLTEuNDk1LS42NzctMS40OTUtMS41cy42NzctMS41IDEuNDk1LTEuNWMuMzQxIDAgLjY3Ny4xMTguOTQxLjMzNkMxNi4wODYgMzYuODU1IDE2LjE4NiAzNy44MDUgMTUuNjY4IDM4LjQ0NUwxNS42NjggMzguNDQ1eiIgZmlsbD0iI2ZmZiIvPjwvc3ZnPg==" parent="1" vertex="1">
          <mxGeometry x="850" y="230.99" width="96" height="96" as="geometry" />
        </mxCell>
        <mxCell id="Exe1lYxw26IQHnq39bxL-22" style="edgeStyle=orthogonalEdgeStyle;rounded=0;orthogonalLoop=1;jettySize=auto;html=1;" parent="1" source="Exe1lYxw26IQHnq39bxL-9" target="X9U1fQeeY0qdGe6NrVDz-23" edge="1">
          <mxGeometry relative="1" as="geometry" />
        </mxCell>
        <mxCell id="Exe1lYxw26IQHnq39bxL-9" value="[Spring Boot]&#xa;Rest API Server&#xa;" style="shape=image;verticalLabelPosition=bottom;verticalAlign=top;imageAspect=0;aspect=fixed;image=data:image/svg+xml,PHN2ZyB4bWxucz0iaHR0cDovL3d3dy53My5vcmcvMjAwMC9zdmciIGhlaWdodD0iOTZweCIgd2lkdGg9Ijk2cHgiIHZpZXdCb3g9IjAgMCA0OCA0OCI+PHBhdGggZD0iTTQzLjk4MiwyMy42MzVjMC4wNjktNC4yNjEtMC44OTEtOS4zMjgtMi44OTEtMTUuMjczbC0xLjU2OC00LjY2MmwtMi4xMyw0LjQzMyBjLTAuMTE0LDAuMjM3LTAuMjQ0LDAuNDY5LTAuMzgsMC42OThDMzMuNTE0LDUuODI3LDI4Ljk3NCw0LDI0LDRDMTIuOTU0LDQsNCwxMi45NTQsNCwyNGMwLDExLjA0Niw4Ljk1NCwyMCwyMCwyMHMyMC04Ljk1NCwyMC0yMCBDNDQsMjMuODc3LDQzLjk4NCwyMy43NTgsNDMuOTgyLDIzLjYzNXoiIGZpbGw9IiM4YmMzNGEiLz48cGF0aCBkPSJNMzkuMzg1IDMyLjU1OGMtMy4xMjMgNC4zMDItOC42NTEgNC41MzMtMTMuODU0IDQuNDQySDE4Ljc1aC0xLjkzOGM0LjQyOC0xLjU5MyA3LjA2My0xLjk3MiA5Ljc1NC0zLjQgNS4wNjgtMi42NjUgMTAuMDc4LTguNDk2IDExLjEyMS0xNC41NjItMS45MyA1LjgzNi03Ljc3OSAxMC44NS0xMy4xMDkgMTIuODg5LTMuNjUyIDEuMzkzLTEwLjI0OCAyLjc0NS0xMC4yNDggMi43NDVsLS4yNjctLjE0NUM5LjU3MyAzMi4yNjggOS40MzcgMjIuMjE0IDE3LjYgMTguOTY4YzMuNTc0LTEuNDIzIDYuOTkzLS42NDEgMTAuODU0LTEuNTkzIDQuMTIyLTEuMDEyIDguODktNC4yMDggMTAuODMtOC4zNzVDNDEuNDU2IDE1LjY2NyA0NC4wNyAyNi4xMDYgMzkuMzg1IDMyLjU1OEwzOS4zODUgMzIuNTU4ek0xNS42NjggMzguNDQ1QzE1LjM4NiAzOC43OTUgMTQuOTU1IDM5IDE0LjUwNSAzOWMtLjgyMyAwLTEuNDk1LS42NzctMS40OTUtMS41cy42NzctMS41IDEuNDk1LTEuNWMuMzQxIDAgLjY3Ny4xMTguOTQxLjMzNkMxNi4wODYgMzYuODU1IDE2LjE4NiAzNy44MDUgMTUuNjY4IDM4LjQ0NUwxNS42NjggMzguNDQ1eiIgZmlsbD0iI2ZmZiIvPjwvc3ZnPg==" parent="1" vertex="1">
          <mxGeometry x="1460" y="534" width="96" height="96" as="geometry" />
        </mxCell>
        <mxCell id="Exe1lYxw26IQHnq39bxL-16" value="&amp;nbsp;&amp;nbsp;" style="text;html=1;align=center;verticalAlign=middle;resizable=0;points=[];autosize=1;strokeColor=none;fillColor=none;" parent="1" vertex="1">
          <mxGeometry x="1255" y="718" width="30" height="30" as="geometry" />
        </mxCell>
        <mxCell id="Exe1lYxw26IQHnq39bxL-20" style="edgeStyle=orthogonalEdgeStyle;rounded=0;orthogonalLoop=1;jettySize=auto;html=1;entryX=0;entryY=0.5;entryDx=0;entryDy=0;" parent="1" source="Exe1lYxw26IQHnq39bxL-17" target="Exe1lYxw26IQHnq39bxL-19" edge="1">
          <mxGeometry relative="1" as="geometry" />
        </mxCell>
        <mxCell id="Exe1lYxw26IQHnq39bxL-17" value="[Kafka]&#xa;Upstash Kafka" style="shape=image;verticalLabelPosition=bottom;verticalAlign=top;imageAspect=0;aspect=fixed;image=data:image/svg+xml,PHN2ZyB4bWxucz0iaHR0cDovL3d3dy53My5vcmcvMjAwMC9zdmciIGZpbGw9Im5vbmUiIHZpZXdCb3g9IjAgMCA0OCA0OCIgaGVpZ2h0PSI0OCIgd2lkdGg9IjQ4Ij4mI3hhOzxwYXRoIGZpbGw9IiMwNDA1MzEiIGQ9Ik0yNyA4QzI3IDkuMTA0NTcgMjYuMTA0NiAxMCAyNSAxMEMyMy44OTU0IDEwIDIzIDkuMTA0NTcgMjMgOEMyMyA2Ljg5NTQzIDIzLjg5NTQgNiAyNSA2QzI2LjEwNDYgNiAyNyA2Ljg5NTQzIDI3IDhaTTI2LjQ4MzQgMTIuNzc2M0MyOC41MjA1IDEyLjE0NDMgMzAgMTAuMjQ0OSAzMCA4QzMwIDUuMjM4NTggMjcuNzYxNCAzIDI1IDNDMjIuMjM4NiAzIDIwIDUuMjM4NTggMjAgOEMyMCAxMC4yNDQ5IDIxLjQ3OTUgMTIuMTQ0MyAyMy41MTY2IDEyLjc3NjNDMjMuNTA1NyAxMi44NDkzIDIzLjUgMTIuOTI0IDIzLjUgMTNWMTYuNjVDMjAuMDc2NiAxNy4zNDQ5IDE3LjUgMjAuMzcxNiAxNy41IDI0QzE3LjUgMjcuNjI4NCAyMC4wNzY2IDMwLjY1NTEgMjMuNSAzMS4zNVYzNUMyMy41IDM1LjA3NiAyMy41MDU3IDM1LjE1MDcgMjMuNTE2NiAzNS4yMjM3QzIxLjQ3OTUgMzUuODU1NyAyMCAzNy43NTUxIDIwIDQwQzIwIDQyLjc2MTQgMjIuMjM4NiA0NSAyNSA0NUMyNy43NjE0IDQ1IDMwIDQyLjc2MTQgMzAgNDBDMzAgMzcuNzU1MSAyOC41MjA1IDM1Ljg1NTcgMjYuNDgzNCAzNS4yMjM3QzI2LjQ5NDMgMzUuMTUwNyAyNi41IDM1LjA3NiAyNi41IDM1VjMxLjM1QzI4LjIxOTMgMzEuMDAxIDI5LjcyNSAzMC4wNjM5IDMwLjc5OCAyOC43NTc4TDM1LjE5IDMxLjQ2NjRDMzUuMTAwNiAzMi4xMTY3IDM1LjEzODYgMzIuNzk1NCAzNS4zMjMzIDMzLjQ2ODRDMzYuMDU0MiAzNi4xMzE0IDM4LjgwNTQgMzcuNjk3NyA0MS40NjgzIDM2Ljk2NjhDNDQuMTMxMyAzNi4yMzYgNDUuNjk3NiAzMy40ODQ4IDQ0Ljk2NjcgMzAuODIxOEM0NC4yMzU5IDI4LjE1ODkgNDEuNDg0NyAyNi41OTI2IDM4LjgyMTcgMjcuMzIzNEMzNy44OTEzIDI3LjU3ODggMzcuMDk0OCAyOC4wODA3IDM2LjQ4MzMgMjguNzM5NEwzMi4yMDIzIDI2LjA5OTFDMzIuMzk2MSAyNS40MzMgMzIuNSAyNC43Mjg3IDMyLjUgMjRDMzIuNSAyMy4zMTg2IDMyLjQwOTEgMjIuNjU4NCAzMi4yMzg4IDIyLjAzMDhMMzYuNTc1OCAxOS42NDhDMzcuMTc3NCAyMC4yNTU4IDM3Ljk0MyAyMC43MTczIDM4LjgyODQgMjAuOTU1NUM0MS40OTUgMjEuNjcyOCA0NC4yMzgyIDIwLjA5MjUgNDQuOTU1NSAxNy40MjU5QzQ1LjY3MjggMTQuNzU5MiA0NC4wOTI1IDEyLjAxNiA0MS40MjU5IDExLjI5ODdDMzguNzU5MiAxMC41ODE1IDM2LjAxNiAxMi4xNjE3IDM1LjI5ODggMTQuODI4NEMzNS4xMDM0IDE1LjU1NDQgMzUuMDc4NSAxNi4yODYyIDM1LjE5OTQgMTYuOTgxMkwzMC44ODU5IDE5LjM1MTJDMjkuODA3OSAxNy45ODgzIDI4LjI2NjcgMTcuMDA4NyAyNi41IDE2LjY1VjEzQzI2LjUgMTIuOTI0IDI2LjQ5NDMgMTIuODQ5MyAyNi40ODM0IDEyLjc3NjNaTTI1IDI4LjVDMjcuNDg1MyAyOC41IDI5LjUgMjYuNDg1MyAyOS41IDI0QzI5LjUgMjEuNTE0NyAyNy40ODUzIDE5LjUgMjUgMTkuNUMyMi41MTQ3IDE5LjUgMjAuNSAyMS41MTQ3IDIwLjUgMjRDMjAuNSAyNi40ODUzIDIyLjUxNDcgMjguNSAyNSAyOC41Wk0yNSA0MkMyNi4xMDQ2IDQyIDI3IDQxLjEwNDYgMjcgNDBDMjcgMzguODk1NCAyNi4xMDQ2IDM4IDI1IDM4QzIzLjg5NTQgMzggMjMgMzguODk1NCAyMyA0MEMyMyA0MS4xMDQ2IDIzLjg5NTQgNDIgMjUgNDJaTTQwLjY0NjYgMTQuMTk1OEM0MS43MTMzIDE0LjQ4MjcgNDIuMzQ1NCAxNS41OCA0Mi4wNTg1IDE2LjY0NjZDNDEuNzcxNiAxNy43MTMzIDQwLjY3NDMgMTguMzQ1NCAzOS42MDc2IDE4LjA1ODVDMzguNTQxIDE3Ljc3MTYgMzcuOTA4OSAxNi42NzQzIDM4LjE5NTggMTUuNjA3NkMzOC40ODI3IDE0LjU0MSAzOS41OCAxMy45MDg4IDQwLjY0NjYgMTQuMTk1OFpNNDAuNjc0MyAzNC4wNzM4QzQxLjczOTUgMzMuNzgxNSA0Mi4zNjYgMzIuNjgxIDQyLjA3MzcgMzEuNjE1OEM0MS43ODE0IDMwLjU1MDYgNDAuNjgwOSAyOS45MjQxIDM5LjYxNTcgMzAuMjE2NEMzOC41NTA1IDMwLjUwODggMzcuOTI0IDMxLjYwOTMgMzguMjE2MyAzMi42NzQ0QzM4LjUwODcgMzMuNzM5NiAzOS42MDkyIDM0LjM2NjEgNDAuNjc0MyAzNC4wNzM4WiIgY2xpcC1ydWxlPSJldmVub2RkIiBmaWxsLXJ1bGU9ImV2ZW5vZGQiLz4mI3hhOzxwYXRoIHN0cm9rZS13aWR0aD0iNCIgc3Ryb2tlPSJ1cmwoI3BhaW50MF9saW5lYXIpIiBkPSJNMTggMzVDMTIuNDc3MiAzNSA4IDMwLjA3NTEgOCAyNEM4IDE3LjkyNDkgMTIuNDc3MiAxMyAxOCAxMyIvPiYjeGE7PGRlZnM+JiN4YTs8bGluZWFyR3JhZGllbnQgZ3JhZGllbnRVbml0cz0idXNlclNwYWNlT25Vc2UiIHkyPSIzNSIgeDI9IjE4IiB5MT0iMTMiIHgxPSIxOCIgaWQ9InBhaW50MF9saW5lYXIiPiYjeGE7PHN0b3Agc3RvcC1jb2xvcj0iIzM5Q0RFRSIvPiYjeGE7PHN0b3Agc3RvcC1vcGFjaXR5PSIwLjQiIHN0b3AtY29sb3I9IiMzOENDRUQiIG9mZnNldD0iMSIvPiYjeGE7PC9saW5lYXJHcmFkaWVudD4mI3hhOzwvZGVmcz4mI3hhOzwvc3ZnPg==" parent="1" vertex="1">
          <mxGeometry x="850" y="796.25" width="118.5" height="118.5" as="geometry" />
        </mxCell>
        <mxCell id="Exe1lYxw26IQHnq39bxL-21" style="edgeStyle=orthogonalEdgeStyle;rounded=0;orthogonalLoop=1;jettySize=auto;html=1;entryX=0;entryY=0.5;entryDx=0;entryDy=0;" parent="1" source="Exe1lYxw26IQHnq39bxL-19" target="X9U1fQeeY0qdGe6NrVDz-23" edge="1">
          <mxGeometry relative="1" as="geometry" />
        </mxCell>
        <mxCell id="Exe1lYxw26IQHnq39bxL-19" value="[Spring Boot Netty]&#xa;Web Socket" style="shape=image;verticalLabelPosition=bottom;verticalAlign=top;imageAspect=0;aspect=fixed;image=data:image/svg+xml,PHN2ZyB4bWxucz0iaHR0cDovL3d3dy53My5vcmcvMjAwMC9zdmciIGhlaWdodD0iOTZweCIgd2lkdGg9Ijk2cHgiIHZpZXdCb3g9IjAgMCA0OCA0OCI+PHBhdGggZD0iTTQzLjk4MiwyMy42MzVjMC4wNjktNC4yNjEtMC44OTEtOS4zMjgtMi44OTEtMTUuMjczbC0xLjU2OC00LjY2MmwtMi4xMyw0LjQzMyBjLTAuMTE0LDAuMjM3LTAuMjQ0LDAuNDY5LTAuMzgsMC42OThDMzMuNTE0LDUuODI3LDI4Ljk3NCw0LDI0LDRDMTIuOTU0LDQsNCwxMi45NTQsNCwyNGMwLDExLjA0Niw4Ljk1NCwyMCwyMCwyMHMyMC04Ljk1NCwyMC0yMCBDNDQsMjMuODc3LDQzLjk4NCwyMy43NTgsNDMuOTgyLDIzLjYzNXoiIGZpbGw9IiM4YmMzNGEiLz48cGF0aCBkPSJNMzkuMzg1IDMyLjU1OGMtMy4xMjMgNC4zMDItOC42NTEgNC41MzMtMTMuODU0IDQuNDQySDE4Ljc1aC0xLjkzOGM0LjQyOC0xLjU5MyA3LjA2My0xLjk3MiA5Ljc1NC0zLjQgNS4wNjgtMi42NjUgMTAuMDc4LTguNDk2IDExLjEyMS0xNC41NjItMS45MyA1LjgzNi03Ljc3OSAxMC44NS0xMy4xMDkgMTIuODg5LTMuNjUyIDEuMzkzLTEwLjI0OCAyLjc0NS0xMC4yNDggMi43NDVsLS4yNjctLjE0NUM5LjU3MyAzMi4yNjggOS40MzcgMjIuMjE0IDE3LjYgMTguOTY4YzMuNTc0LTEuNDIzIDYuOTkzLS42NDEgMTAuODU0LTEuNTkzIDQuMTIyLTEuMDEyIDguODktNC4yMDggMTAuODMtOC4zNzVDNDEuNDU2IDE1LjY2NyA0NC4wNyAyNi4xMDYgMzkuMzg1IDMyLjU1OEwzOS4zODUgMzIuNTU4ek0xNS42NjggMzguNDQ1QzE1LjM4NiAzOC43OTUgMTQuOTU1IDM5IDE0LjUwNSAzOWMtLjgyMyAwLTEuNDk1LS42NzctMS40OTUtMS41cy42NzctMS41IDEuNDk1LTEuNWMuMzQxIDAgLjY3Ny4xMTguOTQxLjMzNkMxNi4wODYgMzYuODU1IDE2LjE4NiAzNy44MDUgMTUuNjY4IDM4LjQ0NUwxNS42NjggMzguNDQ1eiIgZmlsbD0iI2ZmZiIvPjwvc3ZnPg==" parent="1" vertex="1">
          <mxGeometry x="1462" y="807.5" width="96" height="96" as="geometry" />
        </mxCell>
      </root>
    </mxGraphModel>
  </diagram>
</mxfile>
